<svg width="40" height="40" viewBox="0 0 40 40" fill="none" xmlns="http://www.w3.org/2000/svg">
<path fill-rule="evenodd" clip-rule="evenodd" d="M19.9468 39.5106C30.9631 39.5106 39.8936 30.6659 39.8936 19.7553C39.8936 8.84476 30.9631 0 19.9468 0C8.93049 0 0 8.84476 0 19.7553C0 30.6659 8.93049 39.5106 19.9468 39.5106Z" fill="#F5F6FA" fill-opacity="0.01"/>
<mask id="mask0_2_25" style="mask-type:alpha" maskUnits="userSpaceOnUse" x="0" y="0" width="40" height="40">
<path fill-rule="evenodd" clip-rule="evenodd" d="M19.9468 39.5106C30.9631 39.5106 39.8936 30.6659 39.8936 19.7553C39.8936 8.84476 30.9631 0 19.9468 0C8.93049 0 0 8.84476 0 19.7553C0 30.6659 8.93049 39.5106 19.9468 39.5106Z" fill="white"/>
</mask>
<g mask="url(#mask0_2_25)">
</g>
<path d="M31.1701 13.8615C30.4246 14.1919 29.6247 14.4159 28.7842 14.5159C29.6424 14.002 30.2993 13.1869 30.6106 12.2186C29.8056 12.6945 28.9171 13.0401 27.9703 13.2274C27.2122 12.4186 26.1338 11.9149 24.9376 11.9149C22.6429 11.9149 20.7823 13.7755 20.7823 16.069C20.7823 16.3943 20.819 16.7119 20.8899 17.0157C17.437 16.8423 14.3752 15.188 12.326 12.6743C11.9678 13.2869 11.7641 14.0007 11.7641 14.7627C11.7641 16.2044 12.4982 17.4765 13.612 18.2207C12.9311 18.1979 12.2906 18.0106 11.7299 17.6992V17.7511C11.7299 19.7636 13.1627 21.4432 15.0625 21.8255C14.7145 21.9191 14.3474 21.971 13.9677 21.971C13.6994 21.971 13.4399 21.9444 13.1855 21.8938C13.7145 23.5456 15.2486 24.7467 17.0662 24.7797C15.6448 25.8935 13.8525 26.5555 11.9058 26.5555C11.5704 26.5555 11.2401 26.5352 10.9148 26.4985C12.7539 27.6794 14.9373 28.368 17.2839 28.368C24.9276 28.368 29.1057 22.0368 29.1057 16.5462L29.0918 16.0082C29.9082 15.426 30.6144 14.6944 31.1701 13.8615Z" fill="#010002"/>
<mask id="mask1_2_25" style="mask-type:alpha" maskUnits="userSpaceOnUse" x="10" y="11" width="22" height="18">
<path d="M31.1701 13.8615C30.4246 14.1919 29.6247 14.4159 28.7842 14.5159C29.6424 14.002 30.2993 13.1869 30.6106 12.2186C29.8056 12.6945 28.9171 13.0401 27.9703 13.2274C27.2122 12.4186 26.1338 11.9149 24.9376 11.9149C22.6429 11.9149 20.7823 13.7755 20.7823 16.069C20.7823 16.3943 20.819 16.7119 20.8899 17.0157C17.437 16.8423 14.3752 15.188 12.326 12.6743C11.9678 13.2869 11.7641 14.0007 11.7641 14.7627C11.7641 16.2044 12.4982 17.4765 13.612 18.2207C12.9311 18.1979 12.2906 18.0106 11.7299 17.6992V17.7511C11.7299 19.7636 13.1627 21.4432 15.0625 21.8255C14.7145 21.9191 14.3474 21.971 13.9677 21.971C13.6994 21.971 13.4399 21.9444 13.1855 21.8938C13.7145 23.5456 15.2486 24.7467 17.0662 24.7797C15.6448 25.8935 13.8525 26.5555 11.9058 26.5555C11.5704 26.5555 11.2401 26.5352 10.9148 26.4985C12.7539 27.6794 14.9373 28.368 17.2839 28.368C24.9276 28.368 29.1057 22.0368 29.1057 16.5462L29.0918 16.0082C29.9082 15.426 30.6144 14.6944 31.1701 13.8615Z" fill="white"/>
</mask>
<g mask="url(#mask1_2_25)">
<rect x="7.34033" y="7.14893" width="26.2128" height="26.2128" fill="white"/>
</g>
</svg>
